<?xml version="1.0" encoding="UTF-8"?>
<!DOCTYPE svg PUBLIC "-//W3C//DTD SVG 1.1//EN" "http://www.w3.org/Graphics/SVG/1.1/DTD/svg11.dtd">
<!-- Creator: CorelDRAW 2021 (64-Bit) -->
<svg xmlns="http://www.w3.org/2000/svg" xml:space="preserve" width="41.4525mm" height="41.4524mm" version="1.1" style="shape-rendering:geometricPrecision; text-rendering:geometricPrecision; image-rendering:optimizeQuality; fill-rule:evenodd; clip-rule:evenodd"
viewBox="0 0 300.92 300.92"
 xmlns:xlink="http://www.w3.org/1999/xlink"
 xmlns:xodm="http://www.corel.com/coreldraw/odm/2003">
 <defs>
  <style type="text/css">
   <![CDATA[
    .fil0 {fill:#D1B279}
   ]]>
  </style>
 </defs>
 <g id="Layer_x0020_1">
  <metadata id="CorelCorpID_0Corel-Layer"/>
  <path class="fil0" d="M150.46 21.84c71.03,0 128.62,57.58 128.62,128.62 0,21.17 -5.12,41.15 -14.18,58.77l-101.97 -104.78 -0.01 0.01c-0.32,-0.33 -0.66,-0.65 -1.01,-0.96 -7.68,-6.8 -19.42,-6.08 -26.22,1.6l-96.91 109.2c-10.78,-18.81 -16.94,-40.61 -16.94,-63.84 0,-71.03 57.58,-128.62 128.62,-128.62zm92.42 218.07c-23.38,24.15 -56.15,39.16 -92.42,39.16 -34.2,0 -65.29,-13.35 -88.33,-35.13l88.08 -99.25 92.66 95.22zm16.94 -239.92l-218.7 0c-22.61,0 -41.11,18.5 -41.11,41.11l0 218.7c0,22.61 18.5,41.11 41.11,41.11l218.7 0c22.61,0 41.11,-18.5 41.11,-41.11l0 -218.7c0,-22.61 -18.5,-41.11 -41.11,-41.11z"/>
 </g>
</svg>
