<?xml version="1.0" encoding="UTF-8"?>
<!DOCTYPE svg PUBLIC "-//W3C//DTD SVG 1.1//EN" "http://www.w3.org/Graphics/SVG/1.1/DTD/svg11.dtd">
<!-- Creator: CorelDRAW 2021 (64-Bit) -->
<svg xmlns="http://www.w3.org/2000/svg" xml:space="preserve" width="41.4525mm" height="41.4524mm" version="1.1" style="shape-rendering:geometricPrecision; text-rendering:geometricPrecision; image-rendering:optimizeQuality; fill-rule:evenodd; clip-rule:evenodd"
viewBox="0 0 301.85 301.85"
 xmlns:xlink="http://www.w3.org/1999/xlink"
 xmlns:xodm="http://www.corel.com/coreldraw/odm/2003">
 <defs>
  <style type="text/css">
   <![CDATA[
    .fil0 {fill:#D9DFFD}
   ]]>
  </style>
 </defs>
 <g id="Layer_x0020_1">
  <metadata id="CorelCorpID_0Corel-Layer"/>
  <path class="fil0" d="M150.93 21.91c71.26,0 129.02,57.76 129.02,129.02 0,21.24 -5.13,41.28 -14.23,58.95l-102.28 -105.11 -0.01 0.01c-0.32,-0.33 -0.66,-0.65 -1.01,-0.96 -7.71,-6.82 -19.48,-6.1 -26.3,1.61l-97.21 109.54c-10.81,-18.87 -16.99,-40.73 -16.99,-64.04 0,-71.26 57.76,-129.02 129.02,-129.02zm92.7 218.75c-23.45,24.23 -56.32,39.28 -92.7,39.28 -34.31,0 -65.49,-13.4 -88.6,-35.24l88.36 -99.56 92.95 95.51zm16.99 -240.66l-219.38 0c-22.68,0 -41.24,18.56 -41.24,41.24l0 219.38c0,22.68 18.56,41.24 41.24,41.24l219.38 0c22.68,0 41.24,-18.56 41.24,-41.24l0 -219.38c0,-22.68 -18.56,-41.24 -41.24,-41.24z"/>
 </g>
</svg>
